<?xml version="1.0" encoding="UTF-8"?>
<svg width="1920" height="1080" xmlns="http://www.w3.org/2000/svg">
  <defs>
    
    <linearGradient id="bgGrad" x1="0%" y1="0%" x2="100%" y2="100%">
      <stop offset="0%" style="stop-color:#f9a825"/>
      <stop offset="50%" style="stop-color:#29b6f6"/>
      <stop offset="100%" style="stop-color:#ab47bc"/>
    </linearGradient>
    <linearGradient id="bodyHighlight" x1="0%" y1="0%" x2="100%" y2="100%">
      <stop offset="0%" style="stop-color:#FFFFFF;stop-opacity:0.4"/>
      <stop offset="40%" style="stop-color:#FFFFFF;stop-opacity:0.1"/>
      <stop offset="100%" style="stop-color:#000000;stop-opacity:0.05"/>
    </linearGradient>
    <radialGradient id="specular" cx="30%" cy="30%" r="50%">
      <stop offset="0%" style="stop-color:#FFFFFF;stop-opacity:0.8"/>
      <stop offset="100%" style="stop-color:#FFFFFF;stop-opacity:0"/>
    </radialGradient>
  </defs>

  <!-- Background -->
  <rect width="1920" height="1080" fill="url(#bgGrad)"/>

  <!-- Ground shadow -->
  <ellipse cx="960" cy="852.5" rx="150.0" ry="37.5" fill="rgba(20,20,60,0.3)"/>

  <!-- CHARACTER -->
  <g id="character">
    <!-- Legs -->
    <path d="M 946.4446208637534 646.5146474918008
            Q 921.2862739237383 582.5093150635895
              896.1279269837232 518.5039826353783
            L 869.8165336017178 528.080546648497
            Q 891.6859563689821 593.2829495783482
              913.5553791362466 658.4853525081992
            Z" fill="#FFFFFF" stroke="#1a1a3e" stroke-width="10.0" stroke-linejoin="round"/>
        <ellipse cx="882.9722302927205" cy="523.2922646419377" rx="18.2" ry="15.400000000000002"
            fill="#FFFFFF" stroke="#1a1a3e" stroke-width="10.0"/>
    <path d="M 1006.4446208637534 658.4853525081992
            Q 1028.3140436310177 593.2829495783482
              1050.1834663982822 528.080546648497
            L 1023.8720730162768 518.5039826353783
            Q 998.7137260762617 582.5093150635895
              973.5553791362466 646.5146474918008
            Z" fill="#FFFFFF" stroke="#1a1a3e" stroke-width="10.0" stroke-linejoin="round"/>
        <ellipse cx="1037.0277697072795" cy="523.2922646419377" rx="18.2" ry="15.400000000000002"
            fill="#FFFFFF" stroke="#1a1a3e" stroke-width="10.0"/>

    <!-- Body + Head -->
    <path d="
      M 960 377.5
      C 1073.75 377.5 1073.75 526.25 1027.5 590.0
      L 1030.0 640.0
      Q 1030.0 677.5 960 677.5
      Q 890.0 677.5 890.0 640.0
      L 892.5 590.0
      C 846.25 526.25 846.25 377.5 960 377.5
      Z"
      fill="#FFFFFF" stroke="#1a1a3e" stroke-width="10.0" stroke-linejoin="round"/>

    <!-- Glossy overlay -->
    <ellipse cx="933.75" cy="438.75" rx="35.0" ry="26.25" fill="url(#specular)"/>

    <!-- Arms -->
    <path d="M 900.0 562.5
            Q 843.75 565.5
              795.0360710371253 538.875
            L 795.0360710371253 559.875
            Q 843.75 589.5
              900.0 592.5
            Z" fill="#FFFFFF" stroke="#1a1a3e" stroke-width="10.0" stroke-linejoin="round"/>
        <ellipse cx="795.0360710371253" cy="549.375" rx="12.6" ry="12.6"
            fill="#FFFFFF" stroke="#1a1a3e" stroke-width="10.0"/>
    <path d="M 1020.0 592.5
            Q 1076.25 589.5
              1124.9639289628747 559.875
            L 1124.9639289628747 538.875
            Q 1076.25 565.5
              1020.0 562.5
            Z" fill="#FFFFFF" stroke="#1a1a3e" stroke-width="10.0" stroke-linejoin="round"/>
        <ellipse cx="1124.9639289628747" cy="549.375" rx="12.6" ry="12.6"
            fill="#FFFFFF" stroke="#1a1a3e" stroke-width="10.0"/>

    <!-- Object (between hands) -->
    <rect x="935.0" y="504.375" width="50" height="90" fill="#333" stroke="#1a1a3e" stroke-width="6" rx="8"/>
            <rect x="940.0" y="514.375" width="40" height="60" fill="#4FC3F7" rx="2"/>

    <!-- Face -->
    <ellipse cx="930.0" cy="460.0" rx="12.5" ry="15.0" fill="#1a1a3e"/>
    <ellipse cx="990.0" cy="460.0" rx="12.5" ry="15.0" fill="#1a1a3e"/>
  </g>
</svg>